v -0.33085423888100085 1.2516468558781522 0
vn 0 0 1
v -1.1150478773898311 0.35994103183425363 0
vn 0 0 1
v -0.3965599485632737 0.5211999917465111 0
vn 0 0 1
v -1.5263105869874394 0.5799890536933964 0
vn 0 0 1
v 0.3611650371664398 1.1594904702631514 0
vn 0 0 1
v 0.45310892887850895 0.24265076271022049 0
vn 0 0 1
v 1.0232469219680818 0.9089741034316342 0
vn 0 0 1
v 1.1640269195585935 0.18604441710605935 0
vn 0 0 1
v 1.783326475341448 -0.2917526600362287 0
vn 0 0 1
v 0.9586346810763697 -0.3532942847507932 0
vn 0 0 1
v 0.2706768949243306 -0.5651766290413408 0
vn 0 0 1
v 0.7930822346334289 -1.0169679773730946 0
vn 0 0 1
v 1.017704757114433 -1.5295585039320407 0
vn 0 0 1
v -0.21138514105327302 -0.19319570593236293 0
vn 0 0 1
v -0.9233109582363924 -0.28324637471046316 0
vn 0 0 1
v -0.4675350723239735 -0.8848968983670276 0
vn 0 0 1
v -1.6909401512774125 -0.12131864270067833 0
vn 0 0 1
v -1.5496242446248412 -0.8085892837026895 0
vn 0 0 1
v -0.41805730669612046 -1.6968157773742567 0
vn 0 0 1
v -0.9984044615898265 1.0654638247606876 0
vn 0 0 1
v 1.5666018689707464 0.4043326449809015 0
vn 0 0 1
v 1.2827834910081186 -0.6754875531790444 0
vn 0 0 1
v 1.5764443009505573 -1.027403688864139 0
vn 0 0 1
v -1.0037902014961624 -0.8474103246731307 0
vn 0 0 1
v -1.065532218788933 -1.3973397985749005 0
vn 0 0 1
v 0.09970565473380931 -1.1843572063396317 0
vn 0 0 1
v 0.3192863514053247 -1.744177001126206 0
vn 0 0 1
f 1//1 20//20 3//3 
f 2//2 3//3 20//20 
f 3//3 5//5 1//1 
f 6//6 5//5 3//3 
f 6//6 7//7 5//5 
f 6//6 8//8 7//7 
f 9//9 21//21 8//8 
f 8//8 10//10 9//9 
f 8//8 6//6 10//10 
f 11//11 10//10 6//6 
f 11//11 12//12 10//10 
f 12//12 22//22 10//10 
f 22//22 12//12 23//23 
f 14//14 11//11 6//6 
f 3//3 14//14 6//6 
f 3//3 15//15 14//14 
f 16//16 14//14 15//15 
f 16//16 11//11 14//14 
f 16//16 26//26 11//11 
f 2//2 15//15 3//3 
f 2//2 17//17 15//15 
f 2//2 4//4 17//17 
f 18//18 15//15 17//17 
f 18//18 24//24 15//15 
f 24//24 25//25 16//16 
f 19//19 26//26 16//16 
f 26//26 27//27 12//12 
f 20//20 4//4 2//2 
f 21//21 7//7 8//8 
f 22//22 9//9 10//10 
f 13//13 23//23 12//12 
f 23//23 9//9 22//22 
f 24//24 16//16 15//15 
f 18//18 25//25 24//24 
f 19//19 16//16 25//25 
f 12//12 11//11 26//26 
f 19//19 27//27 26//26 
f 13//13 12//12 27//27 
