v -0.34907939292569157 1.672433556115964 -0.0009878789771153823
vn 0.000385107956991406 0.0006710651809663299 0.9999997006816475
v -0.9998365669667147 0.7447600874218551 -0.00011473758545657848
vn 0.00038510795770945036 0.0006710651812347014 0.9999997006816469
v -0.3424921729105638 1.1291175686712192 -0.0006258152181488252
vn 0.00038510795731828745 0.0006710651808588127 0.9999997006816472
v -1.4294775984543173 1.0138335939901255 -0.0001298452713425219
vn 0.00038510795764981425 0.0006710651815022598 0.9999997006816468
v 0.26786138393717285 1.6908715124742733 -0.0012378409245141664
vn 0.00038510795701530406 0.0006710651805420575 0.9999997006816477
v 0.38467883930261476 0.8536937328980999 -0.0007210272437925816
vn 0.00038510795751439995 0.0006710651801690248 0.9999997006816477
v 0.8505031761496865 1.5799071511492553 -0.0013877566404192322
vn 0.0003851079571422166 0.000671065179970019 0.999999700681648
v 1.0916757242198203 0.9702831096597286 -0.00107153654609321
vn 0.00038510795741667804 0.0006710651796560448 0.9999997006816482
v 1.7935430909612287 0.7940563409269845 -0.0012235716514411746
vn 0.0003851079577333407 0.0006710651792711913 0.9999997006816483
v 0.9983716215707887 0.33330379956794876 -0.0006081496198324852
vn 0.0003851079578574724 0.0006710651795634947 0.999999700681648
v 0.23763769973815765 -0.0909644826523594 -0.000030473088548033168
vn 0.00038510795829235707 0.0006710651800487844 0.9999997006816476
v 0.9782350380149314 -0.5940082119650281 0.000021892128746732323
vn 0.0003851079586507948 0.0006710651792850284 0.9999997006816479
v 0.5428338069701772 -1.4879893437002345 0.0007894884464170005
vn 0.0003851079592359577 0.0006710651794516388 0.9999997006816477
v -0.40883111558694907 0.3580384345904047 -0.00008282304240554264
vn 0.0003851079579261546 0.0006710651806822355 0.9999997006816472
v -1.130174518171708 0.05653045064808311 0.00039730369592129986
vn 0.0003851079582489119 0.0006710651811377144 0.9999997006816468
v -0.6030277839915351 -0.5444635360310567 0.0005976014916764765
vn 0.0003851079586579759 0.0006710651806402311 0.9999997006816469
v -1.7152672554389083 0.4536321060978313 0.00035614645852910764
vn 0.0003851079580169971 0.0006710651814915759 0.9999997006816467
v -1.7840319418762243 -0.15214665478669584 0.0007891454503327846
vn 0.0003851079584858701 0.0006710651813959858 0.9999997006816465
v -0.6178643048604454 -1.4407173545902452 0.0012047600662314839
vn 0.000385107959227425 0.0006710651802940612 0.9999997006816471
v -0.9456432839238085 1.4382485295724918 -0.000600983942717404
vn 0.0003851079573448121 0.0006710651812063009 0.9999997006816471
v 1.4101431871985415 1.2759926488575146 -0.001399332025146001
vn 0.0003851079572760111 0.0006710651795469563 0.9999997006816483
v 1.5161577000896573 0.06624975735357169 -0.0006283424965177154
vn 0.0003851079581412508 0.0006710651790679451 0.9999997006816482
v 1.0649408160113423 -1.2736597571083088 0.00044459165595184464
vn 0.000385107959070658 0.0006710651791295009 0.9999997006816478
v -1.2487653457284686 -0.5246650801620399 0.0008329941819746844
vn 0.0003851079586713846 0.0006710651811536987 0.9999997006816466
v -1.133017312868974 -1.1999071402006243 0.001241550250876103
vn 0.00038510795894532076 0.0006710651808832015 0.9999997006816468
v 0.08120786881092737 -0.9540677222891325 0.0006089680065741137
vn 0.0003851079590174025 0.0006710651799245832 0.9999997006816472
v -0.04926204359966273 -1.5560723992308083 0.0010631975210613446
vn 0.00038510795945386487 0.0006710651798284505 0.9999997006816472
v 1.951088638329196 0.2117991714624381 -0.00089351108505757
vn 0.0003851079581325215 0.0006710651788875124 0.9999997006816483
v -1.5771797858725218 -0.7633025013903412 0.0011196105467847282
vn 0.00038510795881145247 0.0006710651812618197 0.9999997006816466
v 1.5314481190909004 -0.9046063826744527 0.000017276983979831858
vn 0.0003851079587083189 0.0006710651789169685 0.9999997006816481
v 1.8345351343616663 -0.4094524356214688 -0.0004317249441279763
vn 0.0003851079584392258 0.0006710651788534632 0.9999997006816482
f 3//3 1//1 20//20 
f 20//20 2//2 3//3 
f 1//1 3//3 5//5 
f 3//3 6//6 5//5 
f 5//5 6//6 7//7 
f 7//7 6//6 8//8 
f 8//8 9//9 21//21 
f 9//9 8//8 10//10 
f 10//10 8//8 6//6 
f 6//6 11//11 10//10 
f 10//10 11//11 12//12 
f 10//10 12//12 22//22 
f 12//12 23//23 30//30 
f 6//6 14//14 11//11 
f 6//6 3//3 14//14 
f 3//3 2//2 14//14 
f 15//15 16//16 14//14 
f 14//14 16//16 11//11 
f 11//11 16//16 26//26 
f 15//15 14//14 2//2 
f 15//15 2//2 17//17 
f 17//17 2//2 4//4 
f 17//17 18//18 15//15 
f 15//15 18//18 24//24 
f 16//16 24//24 25//25 
f 16//16 19//19 26//26 
f 13//13 26//26 27//27 
f 2//2 20//20 4//4 
f 8//8 21//21 7//7 
f 10//10 22//22 9//9 
f 12//12 13//13 23//23 
f 30//30 31//31 12//12 
f 15//15 24//24 16//16 
f 29//29 24//24 18//18 
f 25//25 19//19 16//16 
f 26//26 12//12 11//11 
f 26//26 19//19 27//27 
f 26//26 13//13 12//12 
f 28//28 9//9 22//22 
f 25//25 24//24 29//29 
f 22//22 12//12 31//31 
f 31//31 28//28 22//22 
