v -0.3297446370027846 2.2290857708905487 -0.0013688749705324822
vn 0.0003851079582358894 0.0006710651802783152 0.9999997006816475
v -0.985067482224828 1.266816840833063 -0.00047075948577599247
vn 0.0003851079582358887 0.0006710651802783146 0.9999997006816473
v -0.30545024531831577 1.6555017327531454 -0.0009933185457423
vn 0.00038510795823588906 0.0006710651802783147 0.9999997006816473
v -1.4041221806834816 1.6219183713987892 -0.0005476744821116891
vn 0.00038510795823588835 0.0006710651802783145 0.9999997006816475
v 0.28299066972946174 2.2492015925261954 -0.0016183433155900046
vn 0.0003851079582358887 0.000671065180278315 0.9999997006816473
v 0.46589560148300163 1.3798654297484765 -0.0011054000780786714
vn 0.0003851079582358888 0.0006710651802783147 0.9999997006816473
v 0.8696704504951086 2.1648972068210792 -0.0017877046810004498
vn 0.0003851079582358889 0.0006710651802783149 0.9999997006816473
v 1.1716266303394576 1.5643290624920387 -0.001500969953028469
vn 0.00038510795823588906 0.0006710651802783148 0.9999997006816473
v 1.8913195003303775 1.4612082256669734 -0.001708928664038995
vn 0.0003851079582358884 0.0006710651802783153 0.9999997006816475
v 1.1618013077255187 0.8966987518381747 -0.001049162553085157
vn 0.0003851079582358887 0.0006710651802783147 0.9999997006816473
v 0.4313248981970184 0.3438071184327956 -0.00039682375556962654
vn 0.000385107958235889 0.0006710651802783145 0.9999997006816473
v 1.302417282070463 -0.05971684080046165 -0.0004614975058665174
vn 0.0003851079582358885 0.000671065180278314 0.9999997006816473
v 0.5186930598339622 -1.2475385443160656 0.0006374270437154702
vn 0.0003851079582358898 0.000671065180278314 0.9999997006816475
v -0.3420910403516089 0.7865594551163995 -0.00039609079902391126
vn 0.00038510795823588884 0.0006710651802783146 0.9999997006816473
v -1.2114189161480509 0.4213603810445392 0.00018376684030313873
vn 0.0003851079582358887 0.0006710651802783147 0.9999997006816473
v -0.4589146354394724 -0.3505062516391846 0.00041194434250612494
vn 0.000385107958235889 0.0006710651802783148 0.9999997006816475
v -1.7172352669478854 1.0931507161918979 -0.00007225443659476748
vn 0.00038510795823588884 0.0006710651802783147 0.9999997006816473
v -1.8676987939855505 0.5247458301812521 0.00036712712390845205
vn 0.00038510795823588884 0.0006710651802783148 0.9999997006816473
v -0.5976718970734196 -1.1791517703733103 0.0010214562050785982
vn 0.00038510795823588917 0.0006710651802783153 0.9999997006816473
v -0.9178897387765436 2.01048307823178 -0.0009956788441791188
vn 0.000385107958235889 0.0006710651802783145 0.9999997006816473
v 1.4556511285875584 1.907139318123875 -0.001840398175231698
vn 0.0003851079582358893 0.0006710651802783153 0.9999997006816475
v 1.7253248750476637 0.6920975230597728 -0.001128879226899713
vn 0.000385107958235888 0.0006710651802783147 0.9999997006816475
v 1.0652862074730023 -1.0433067189389458 0.0002898767018990096
vn 0.0003851079582358891 0.0006710651802783139 0.9999997006816473
v -1.248871166921688 -0.3221992808595759 0.000697167152363416
vn 0.00038510795823588895 0.0006710651802783147 0.9999997006816473
v -1.1180544649644937 -0.989914195004851 0.0010948689476443928
vn 0.0003851079582358887 0.0006710651802783152 0.9999997006816473
v 0.46720937774204674 -0.602807553290965 0.00022459717711752273
vn 0.00038510795823588944 0.0006710651802783142 0.9999997006816473
v -0.05394443297639649 -1.2549601899700045 0.0008629347748583116
vn 0.0003851079582358899 0.0006710651802783145 0.9999997006816473
v 2.1306910431962143 0.9000371654718792 -0.0014245301063693294
vn 0.00038510795823588765 0.0006710651802783148 0.9999997006816475
v -1.5884824021306208 -0.6132583275944211 0.0010232738310271636
vn 0.0003851079582358892 0.0006710651802783149 0.9999997006816475
v 1.525580195989208 -0.7299697145906642 -0.00009765584551316996
vn 0.0003851079582358884 0.0006710651802783139 0.9999997006816475
v 1.9072665558773239 -0.2791704249121823 -0.000547162141399081
vn 0.0003851079582358883 0.0006710651802783139 0.9999997006816473
v -1.8413698222650248 -0.05747550782186444 0.0007476962084269644
vn 0.000385107958235889 0.0006710651802783149 0.9999997006816473
v 2.116094738281866 0.26302201807693293 -0.000991430138824601
vn 0.0003851079582358882 0.0006710651802783139 0.9999997006816473
f 1//1 20//20 3//3 
f 2//2 3//3 20//20 
f 3//3 5//5 1//1 
f 6//6 5//5 3//3 
f 6//6 7//7 5//5 
f 6//6 8//8 7//7 
f 9//9 21//21 8//8 
f 8//8 10//10 9//9 
f 8//8 6//6 10//10 
f 11//11 10//10 6//6 
f 11//11 12//12 10//10 
f 12//12 22//22 10//10 
f 23//23 30//30 12//12 
f 14//14 11//11 6//6 
f 3//3 14//14 6//6 
f 2//2 14//14 3//3 
f 16//16 14//14 15//15 
f 16//16 11//11 14//14 
f 16//16 26//26 11//11 
f 14//14 2//2 15//15 
f 2//2 17//17 15//15 
f 2//2 4//4 17//17 
f 18//18 15//15 17//17 
f 15//15 18//18 32//32 
f 24//24 25//25 16//16 
f 16//16 19//19 27//27 
f 26//26 27//27 13//13 
f 20//20 4//4 2//2 
f 21//21 7//7 8//8 
f 22//22 9//9 10//10 
f 23//23 12//12 26//26 
f 31//31 12//12 30//30 
f 24//24 16//16 15//15 
f 32//32 24//24 15//15 
f 19//19 16//16 25//25 
f 12//12 11//11 26//26 
f 27//27 26//26 16//16 
f 26//26 13//13 23//23 
f 9//9 22//22 28//28 
f 24//24 29//29 25//25 
f 31//31 33//33 12//12 
f 22//22 12//12 33//33 
f 24//24 32//32 29//29 
f 33//33 28//28 22//22 
